<svg xmlns="http://www.w3.org/2000/svg" width="13" height="12" viewBox="0 0 13 12">
  <defs>
    <style>
      .cls-1 {
        fill: #ccc;
        fill-rule: evenodd;
      }
    </style>
  </defs>
  <path id="Icon" class="cls-1" d="M1387,130h5v2h-5v-2Zm0,10h5v2h-5v-2Zm5-5h8v2h-8v-2Zm-5-5h2v12h-2V130Zm11,4h1v1h-1v-1Zm-1,0h1v1h-1v-1Zm0-1h1v1h-1v-1Zm-1-1h1v1h-1v-1Zm0,1h1v1h-1v-1Zm0,1h1v1h-1v-1Zm2,3h1v1h-1v-1Zm-1,0h1v1h-1v-1Zm0,1h1v1h-1v-1Zm-1,1h1v1h-1v-1Zm0-1h1v1h-1v-1Zm0-1h1v1h-1v-1Z" transform="translate(-1387 -130)"/>
</svg>
