<svg width="29" height="29" viewBox="0 0 29 29" version="1.1" xmlns="http://www.w3.org/2000/svg" xmlns:xlink="http://www.w3.org/1999/xlink">
<title>insta.svg</title>
<desc>Created using Figma</desc>
<g id="Canvas" transform="translate(5885 -1977)">
<g id="insta.svg">
<use xlink:href="#path0_fill" transform="translate(-5884.67 1977.42)" fill="#FFFFFF"/>
</g>
</g>
<defs>
<path id="path0_fill" fill-rule="evenodd" d="M 13.9999 2.50528C 17.7437 2.50528 18.1871 2.51955 19.6655 2.58701C 21.0327 2.64938 21.775 2.87778 22.2691 3.06979C 22.9234 3.32408 23.3904 3.62801 23.8813 4.11861C 24.3721 4.60921 24.6756 5.07632 24.9299 5.73079C 25.1218 6.22483 25.3504 6.96727 25.4128 8.33426C 25.4803 9.81273 25.4945 10.2562 25.4945 13.9999C 25.4945 17.7435 25.4803 18.1871 25.4128 19.6655C 25.3504 21.0326 25.1218 21.775 24.9299 22.2691C 24.6756 22.9234 24.3718 23.3904 23.8813 23.881C 23.3907 24.3715 22.9234 24.6756 22.2691 24.9299C 21.775 25.1218 21.0326 25.3504 19.6655 25.4128C 18.1872 25.4803 17.7439 25.4945 13.9999 25.4945C 10.2559 25.4945 9.81251 25.4803 8.33432 25.4128C 6.9673 25.3504 6.22487 25.1218 5.73083 24.9299C 5.07636 24.6756 4.6093 24.3718 4.11868 23.8813C 3.62805 23.3907 3.32418 22.9234 3.06983 22.2691C 2.87783 21.775 2.64943 21.0326 2.58706 19.6655C 2.5196 18.187 2.50533 17.7436 2.50533 13.9999C 2.50533 10.2562 2.5196 9.81268 2.58706 8.33429C 2.64943 6.96727 2.87783 6.22483 3.06983 5.73079C 3.32413 5.07632 3.62803 4.60926 4.11865 4.11864C 4.60928 3.62801 5.07636 3.32414 5.73083 3.06979C 6.22487 2.87778 6.9673 2.64938 8.33429 2.58701C 9.81276 2.51955 10.2562 2.50528 13.9999 2.50528ZM 13.9999 0C 10.1978 0 9.72102 0.0161326 8.22768 0.0842456C 6.73745 0.152249 5.71989 0.388909 4.82934 0.735025C 3.90876 1.09279 3.12799 1.57147 2.34969 2.34978C 1.57138 3.12809 1.0927 3.90886 0.73494 4.82943C 0.388853 5.71999 0.152194 6.73764 0.0841636 8.22778C 0.0161601 9.72105 0 10.1978 0 13.9999C 0 17.8021 0.0161052 18.2788 0.0842453 19.7722C 0.152249 21.2623 0.388908 22.28 0.735023 23.1706C 1.09279 24.0912 1.57146 24.8719 2.34977 25.6501C 3.12808 26.4283 3.90884 26.9071 4.82942 27.265C 5.71997 27.6112 6.73762 27.8477 8.22776 27.9158C 9.72099 27.9839 10.1978 28 14 28C 17.8022 28 18.2789 27.9839 19.7722 27.9158C 21.2623 27.8477 22.28 27.6112 23.1706 27.265C 24.0912 26.9071 24.8719 26.4286 25.6501 25.6501C 26.4283 24.8716 26.9071 24.0912 27.265 23.1706C 27.6112 22.28 27.8477 21.2623 27.9158 19.7722C 27.9839 18.2789 28 17.8022 28 13.9999C 28 10.1977 27.9839 9.72105 27.9158 8.2277C 27.8477 6.73747 27.6112 5.71991 27.265 4.82935C 26.9071 3.90877 26.4286 3.128 25.6501 2.34969C 24.8716 1.57138 24.0912 1.09271 23.1706 0.734942C 22.28 0.388854 21.2623 0.152195 19.7722 0.0841638C 18.2788 0.0161875 17.8021 0 13.9999 0ZM 13.9999 6.81538C 10.032 6.81538 6.81541 10.032 6.81541 13.9999C 6.81541 17.9678 10.032 21.1845 13.9999 21.1845C 17.9678 21.1845 21.1844 17.9678 21.1844 13.9999C 21.1844 10.0321 17.9678 6.81538 13.9999 6.81538ZM 13.9999 18.6792C 13.0744 18.6792 12.1697 18.4047 11.4002 17.8906C 10.6307 17.3764 10.031 16.6456 9.67681 15.7906C 9.32265 14.9355 9.22999 13.9947 9.41054 13.087C 9.5911 12.1793 10.0368 11.3455 10.6912 10.6911C 11.3456 10.0367 12.1794 9.59105 13.0871 9.4105C 13.9947 9.22996 14.9356 9.32263 15.7906 9.67681C 16.6456 10.031 17.3764 10.6307 17.8906 11.4003C 18.4048 12.1698 18.6792 13.0745 18.6792 13.9999C 18.6792 15.241 18.1862 16.4312 17.3087 17.3087C 16.4311 18.1862 15.2409 18.6792 13.9999 18.6792ZM 23.1368 6.5394C 23.1367 6.87096 23.0384 7.19508 22.8542 7.47075C 22.67 7.74643 22.4081 7.96129 22.1018 8.08817C 21.7955 8.21504 21.4584 8.24823 21.1332 8.18353C 20.808 8.11884 20.5093 7.95916 20.2749 7.72471C 20.0404 7.49025 19.8808 7.19154 19.8161 6.86634C 19.7514 6.54115 19.7846 6.20407 19.9115 5.89775C 20.0384 5.59143 20.2533 5.32961 20.529 5.1454C 20.8046 4.96119 21.1288 4.86287 21.4603 4.86287C 21.6805 4.86288 21.8985 4.90625 22.1019 4.99051C 22.3053 5.07477 22.4901 5.19826 22.6458 5.35395C 22.8015 5.50963 22.9249 5.69446 23.0092 5.89787C 23.0934 6.10128 23.1368 6.31923 23.1368 6.5394Z"/>
</defs>
</svg>
