<svg width="18" height="17" viewBox="0 0 18 17" version="1.1" xmlns="http://www.w3.org/2000/svg" xmlns:xlink="http://www.w3.org/1999/xlink">
<title>&#239;&#128;&#130;</title>
<desc>Created using Figma</desc>
<g id="Canvas" transform="translate(5814 538)">
<rect x="-5814" y="-538" width="18" height="17" fill="#E5E5E5"/>
<clipPath id="clip-0" clip-rule="evenodd">
<path d="M -6906 -596L -4986 -596L -4986 2122L -6906 2122L -6906 -596Z" fill="#FFFFFF"/>
</clipPath>
<g id="D100a - Home s doa&#195;&#167;&#195;&#181;es" clip-path="url(#clip-0)">
<path d="M -6906 -596L -4986 -596L -4986 2122L -6906 2122L -6906 -596Z" fill="#FFFFFF"/>
<g id="header_v2">
<g id="Rectangle 2">
<use xlink:href="#path0_fill" transform="translate(-6906 -596)" fill="#2EBDCE"/>
</g>
<g id="header top">
<g id="search">
<g id="Rectangle" filter="url(#filter0_d)">
<use xlink:href="#path1_fill" transform="translate(-6150 -546)" fill="#FFFFFF"/>
</g>
<g id="&#239;&#128;&#130;">
<use xlink:href="#path2_fill" transform="translate(-5813.04 -538.628)" fill="#BDBDBD"/>
</g>
</g>
</g>
</g>
</g>
</g>
<defs>
<filter id="filter0_d" filterUnits="userSpaceOnUse" x="-6156" y="-551" width="376" height="45" color-interpolation-filters="sRGB">
<feFlood flood-opacity="0" result="BackgroundImageFix"/>
<feColorMatrix in="SourceAlpha" type="matrix" values="0 0 0 0 0 0 0 0 0 0 0 0 0 0 0 0 0 0 255 0"/>
<feOffset dx="0" dy="1"/>
<feGaussianBlur stdDeviation="3"/>
<feColorMatrix type="matrix" values="0 0 0 0 0 0 0 0 0 0 0 0 0 0 0 0 0 0 0.15 0"/>
<feBlend mode="normal" in2="BackgroundImageFix" result="effect1_dropShadow"/>
<feBlend mode="normal" in="SourceGraphic" in2="effect1_dropShadow" result="shape"/>
</filter>
<path id="path0_fill" d="M 0 0L 1920 0L 1920 159L 0 159L 0 0Z"/>
<path id="path1_fill" d="M 0 3C 0 1.34315 1.34315 0 3 0L 361 0C 362.657 0 364 1.34315 364 3L 364 30C 364 31.6569 362.657 33 361 33L 3 33C 1.34315 33 0 31.6569 0 30L 0 3Z"/>
<path id="path2_fill" d="M 11.5714 7.92857C 11.5714 10.4096 9.55246 12.4286 7.07143 12.4286C 4.5904 12.4286 2.57143 10.4096 2.57143 7.92857C 2.57143 5.44754 4.5904 3.42857 7.07143 3.42857C 9.55246 3.42857 11.5714 5.44754 11.5714 7.92857ZM 16.7143 16.2857C 16.7143 15.9442 16.5737 15.6127 16.3426 15.3817L 12.8973 11.9364C 13.7109 10.7612 14.1429 9.35491 14.1429 7.92857C 14.1429 4.02121 10.9788 0.857143 7.07143 0.857143C 3.16406 0.857143 0 4.02121 0 7.92857C 0 11.8359 3.16406 15 7.07143 15C 8.49777 15 9.90402 14.5681 11.0792 13.7545L 14.5246 17.1897C 14.7556 17.4308 15.0871 17.5714 15.4286 17.5714C 16.1317 17.5714 16.7143 16.9888 16.7143 16.2857Z"/>
</defs>
</svg>
