<svg width="42" height="27" viewBox="0 0 42 27" version="1.1" xmlns="http://www.w3.org/2000/svg" xmlns:xlink="http://www.w3.org/1999/xlink">
<title>&#239;&#131;&#149;</title>
<desc>Created using Figma</desc>
<g id="Canvas" transform="translate(5780 -1978)">
<g id="&#239;&#131;&#149;">
<use xlink:href="#path0_fill" transform="translate(-5780 1978.48)" fill="#FFFFFF"/>
</g>
</g>
<defs>
<path id="path0_fill" d="M 25.6607 13.3929C 25.6607 12.5357 25.5714 11.875 25.4464 11.2143L 13.0893 11.2143L 13.0893 15.7143L 20.5179 15.7143C 20.2143 17.625 18.2679 21.3571 13.0893 21.3571C 8.625 21.3571 4.98214 17.6607 4.98214 13.0893C 4.98214 8.51786 8.625 4.82143 13.0893 4.82143C 15.6429 4.82143 17.3393 5.91071 18.3036 6.83929L 21.8571 3.42857C 19.5714 1.28571 16.625 0 13.0893 0C 5.85714 0 0 5.85714 0 13.0893C 0 20.3214 5.85714 26.1786 13.0893 26.1786C 20.6429 26.1786 25.6607 20.875 25.6607 13.3929ZM 41.1429 11.2143L 37.4107 11.2143L 37.4107 7.48214L 33.6607 7.48214L 33.6607 11.2143L 29.9286 11.2143L 29.9286 14.9643L 33.6607 14.9643L 33.6607 18.6964L 37.4107 18.6964L 37.4107 14.9643L 41.1429 14.9643L 41.1429 11.2143Z"/>
</defs>
</svg>
