<svg width="38" height="29" viewBox="0 0 38 29" version="1.1" xmlns="http://www.w3.org/2000/svg" xmlns:xlink="http://www.w3.org/1999/xlink">
<title>Icon.svg</title>
<desc>Created using Figma</desc>
<g id="Canvas" transform="translate(5836 -1977)">
<g id="Icon.svg">
<use xlink:href="#path0_fill" transform="translate(-5835.89 1977.81)" fill="#FFFFFF"/>
</g>
</g>
<defs>
<path id="path0_fill" fill-rule="evenodd" d="M 18.508 0.000116172L 18.4917 0.000116172C 18.4917 0.000116172 10.7251 0.000116148 5.54712 0.404487C 4.82387 0.497835 3.24729 0.505595 1.83983 2.09799C 0.730478 3.31151 0.369456 6.06638 0.369456 6.06638C 0.369456 6.06638 0 9.3017 0 12.537L 0 15.5702C 0 18.8055 0.37 22.0409 0.37 22.0409C 0.37 22.0409 0.731022 24.796 1.84037 26.0093C 3.24784 27.6017 5.0967 27.5513 5.92016 27.7182C 8.88016 28.0249 18.5002 28.1198 18.5002 28.1198C 18.5002 28.1198 26.275 28.1072 31.4526 27.7028C 32.1758 27.6094 33.7529 27.6017 35.1599 26.0093C 36.2692 24.796 36.6308 22.0409 36.6308 22.0409C 36.6308 22.0409 37 18.8055 37 15.5702L 37 12.537C 37 9.30158 36.6305 6.06626 36.6305 6.06626C 36.6305 6.06626 36.269 3.31116 35.1596 2.09787C 33.7527 0.505477 32.1756 0.497602 31.4523 0.404371C 26.2747 4.17297e-07 18.5078 4.41556e-07 18.5078 4.41556e-07L 18.508 0.000116172ZM 14.6368 8.34214L 24.4677 13.8593L 14.6368 19.6022L 14.6368 8.34214Z"/>
</defs>
</svg>
