<svg width="14" height="14" viewBox="0 0 14 14" version="1.1" xmlns="http://www.w3.org/2000/svg" xmlns:xlink="http://www.w3.org/1999/xlink">
<title>Union</title>
<desc>Created using Figma</desc>
<g id="Canvas" transform="translate(836 422)">
<rect x="-836" y="-422" width="14" height="14" fill="#E5E5E5"/>
<clipPath id="clip-0" clip-rule="evenodd">
<path d="M -2443 -596L -523 -596L -523 151L -2443 151L -2443 -596Z" fill="#FFFFFF"/>
</clipPath>
<g id="D100b - Carrinho" clip-path="url(#clip-0)">
<path d="M -2443 -596L -523 -596L -523 151L -2443 151L -2443 -596Z" fill="#FFFFFF"/>
<g id="Rectangle 20" filter="url(#filter0_d)">
<use xlink:href="#path0_fill" transform="translate(-2443 -457)" fill="#FFFFFF"/>
</g>
<g id="carrinho">
<g id="Rectangle 48" opacity="0.8">
<use xlink:href="#path1_fill" transform="translate(-2443 -596)" fill="#47352E"/>
</g>
<clipPath id="clip-1" clip-rule="evenodd">
<path d="M -1163.06 -596L -803 -596L -803 -80L -1163.06 -80L -1163.06 -596Z" fill="#FFFFFF"/>
</clipPath>
<g id="mini-cart" clip-path="url(#clip-1)">
<g id="Rectangle 48">
<use xlink:href="#path2_fill" transform="translate(-1163 -596)" fill="#FFFFFF"/>
</g>
<g id="Produto">
<g id="Union">
<use xlink:href="#path3_fill" transform="matrix(0.707107 0.707107 -0.707107 0.707107 -828.941 -425.607)" fill="#2EBDCD"/>
</g>
</g>
</g>
</g>
</g>
</g>
<defs>
<filter id="filter0_d" filterUnits="userSpaceOnUse" x="-2453" y="-466" width="1940" height="107" color-interpolation-filters="sRGB">
<feFlood flood-opacity="0" result="BackgroundImageFix"/>
<feColorMatrix in="SourceAlpha" type="matrix" values="0 0 0 0 0 0 0 0 0 0 0 0 0 0 0 0 0 0 255 0"/>
<feOffset dx="0" dy="1"/>
<feGaussianBlur stdDeviation="5"/>
<feColorMatrix type="matrix" values="0 0 0 0 0 0 0 0 0 0 0 0 0 0 0 0 0 0 0.1 0"/>
<feBlend mode="normal" in2="BackgroundImageFix" result="effect1_dropShadow"/>
<feBlend mode="normal" in="SourceGraphic" in2="effect1_dropShadow" result="shape"/>
</filter>
<path id="path0_fill" d="M 0 0L 1920 0L 1920 87L 0 87L 0 0Z"/>
<path id="path1_fill" d="M 0 0L 1920 0L 1920 747L 0 747L 0 0Z"/>
<path id="path2_fill" d="M 0 0L 360 0L 360 516L 0 516L 0 0Z"/>
<path id="path3_fill" fill-rule="evenodd" d="M 9 0L 6 0L 6 6L 0 6L 0 9L 6 9L 6 15L 9 15L 9 9L 15 9L 15 6L 9 6L 9 0Z"/>
</defs>
</svg>
