<svg width="16" height="11" viewBox="0 0 16 11" version="1.1" xmlns="http://www.w3.org/2000/svg" xmlns:xlink="http://www.w3.org/1999/xlink">
<title>Union</title>
<desc>Created using Figma</desc>
<g id="Canvas" transform="translate(10054 -1073)">
<g id="Union">
<use xlink:href="#path0_fill" transform="translate(-10053.3 1073.72)" fill="#2EBCCF"/>
</g>
</g>
<defs>
<path id="path0_fill" fill-rule="evenodd" d="M 7.7359 2.14886C 7.7359 3.33563 8.69799 4.29772 9.88476 4.29772C 11.0715 4.29772 12.0336 3.33563 12.0336 2.14886C 12.0336 0.962091 11.0715 0 9.88476 0C 8.69799 0 7.7359 0.962091 7.7359 2.14886ZM 3.43818 4.87075C 3.43818 5.82018 2.66852 6.58984 1.71909 6.58984C 0.769658 6.58984 0 5.82018 0 4.87075C 0 3.92132 0.769658 3.15166 1.71909 3.15166C 2.66852 3.15166 3.43818 3.92132 3.43818 4.87075ZM 12.3201 8.81865C 12.3201 10.2286 11.2599 10.0784 9.7061 9.85825C 9.03144 9.76262 8.26374 9.65385 7.44938 9.65385C 6.63503 9.65385 5.86733 9.76262 5.19266 9.85825C 3.63886 10.0784 2.57863 10.2286 2.57863 8.81865C 2.57863 6.79654 4.75932 4.58423 7.44938 4.58423C 10.1394 4.58423 12.3201 6.79654 12.3201 8.81865ZM 13.1797 6.58984C 12.2302 6.58984 11.4606 5.82018 11.4606 4.87075C 11.4606 3.92132 12.2302 3.15166 13.1797 3.15166C 14.1291 3.15166 14.8988 3.92132 14.8988 4.87075C 14.8988 5.82018 14.1291 6.58984 13.1797 6.58984ZM 5.01401 4.29772C 6.20078 4.29772 7.16287 3.33563 7.16287 2.14886C 7.16287 0.962091 6.20078 0 5.01401 0C 3.82724 0 2.86515 0.962091 2.86515 2.14886C 2.86515 3.33563 3.82724 4.29772 5.01401 4.29772Z"/>
</defs>
</svg>
