<svg width="21" height="20" viewBox="0 0 21 20" version="1.1" xmlns="http://www.w3.org/2000/svg" xmlns:xlink="http://www.w3.org/1999/xlink">
<title>&#239;&#128;&#130;</title>
<desc>Created using Figma</desc>
<g id="Canvas" transform="translate(10710 576)">
<g id="&#239;&#128;&#130;">
<use xlink:href="#path0_fill" transform="translate(-10709.3 -576)" fill="#FFFFFF"/>
</g>
</g>
<defs>
<path id="path0_fill" d="M 13.8462 8.46154C 13.8462 11.4303 11.4303 13.8462 8.46154 13.8462C 5.49279 13.8462 3.07692 11.4303 3.07692 8.46154C 3.07692 5.49279 5.49279 3.07692 8.46154 3.07692C 11.4303 3.07692 13.8462 5.49279 13.8462 8.46154ZM 20 18.4615C 20 18.0529 19.8317 17.6563 19.5553 17.3798L 15.4327 13.2572C 16.4063 11.851 16.9231 10.1683 16.9231 8.46154C 16.9231 3.78606 13.137 0 8.46154 0C 3.78606 0 0 3.78606 0 8.46154C 0 13.137 3.78606 16.9231 8.46154 16.9231C 10.1683 16.9231 11.851 16.4063 13.2572 15.4327L 17.3798 19.5433C 17.6562 19.8317 18.0529 20 18.4615 20C 19.3029 20 20 19.3029 20 18.4615Z"/>
</defs>
</svg>
